<?xml version="1.0" encoding="UTF-8" standalone="no" ?>
<!DOCTYPE svg PUBLIC "-//W3C//DTD SVG 1.1//EN" "http://www.w3.org/Graphics/SVG/1.1/DTD/svg11.dtd">
<svg xmlns="http://www.w3.org/2000/svg" xmlns:xlink="http://www.w3.org/1999/xlink" version="1.1" width="1000" height="1000" viewBox="0 0 500 500" xml:space="preserve">
<desc>Created with Fabric.js 5.3.0</desc>
<defs>
</defs>
<g transform="matrix(1 0 0 1 260.4087915382 217.6815822433)" id="3txCs33shfvDd4NjnAjxo"  >
<path style="stroke: rgb(0,0,0); stroke-width: 3; stroke-dasharray: none; stroke-linecap: butt; stroke-dashoffset: 0; stroke-linejoin: miter; stroke-miterlimit: 4; fill: rgb(255,255,255); fill-rule: nonzero; opacity: 1;"  transform=" translate(0, 0)" d="M 127.8111 179.70062 C 127.8111 179.70062 -132.42937 182.31841999999997 -184.24631 167.13517 C -236.06324999999998 151.95192 -239.20461 110.59066999999999 -211.45592 99.07233999999998 C -183.70722999999998 87.55401999999998 -178.47163 93.83673999999998 -178.47163 93.83673999999998 C -178.47163 93.83673999999998 -216.16797 41.48071999999998 -182.13655 9.543549999999982 C -148.10514 -22.393620000000016 -138.68105 -13.49310000000002 -138.68105 -13.49310000000002 C -138.68105 -13.49310000000002 -182.60891 -131.74701000000002 -47.58157 -175.79676000000003 C -29.11693 -181.82045000000002 51.21266 -189.49472000000003 92.01156 -131.22979000000004 C 132.81045 -72.96487000000005 115.76922 -16.634450000000044 115.76922 -16.634450000000044 C 115.76922 -16.634450000000044 229.87684000000002 -12.388950000000044 188.54409 70.27653999999995 C 188.54409 70.27653999999995 262.88964 97.50166999999996 209.4865 138.33936999999997 C 156.08336 179.17706999999996 127.81111000000001 179.70063 127.81111000000001 179.70063 z" stroke-linecap="round" />
</g>
</svg>