<svg version="1.1" viewBox="0.0 0.0 960.0 720.0" fill="none" stroke="none" stroke-linecap="square" stroke-miterlimit="10" xmlns:xlink="http://www.w3.org/1999/xlink" xmlns="http://www.w3.org/2000/svg"><clipPath id="p.0"><path d="m0 0l960.0 0l0 720.0l-960.0 0l0 -720.0z" clip-rule="nonzero"/></clipPath><g clip-path="url(#p.0)"><path fill="#000000" fill-opacity="0.0" d="m0 0l960.0 0l0 720.0l-960.0 0z" fill-rule="evenodd"/><path fill="#cfe2f3" d="m277.00787 17.296587l405.98425 0l0 42.015747l-405.98425 0z" fill-rule="evenodd"/><path stroke="#000000" stroke-width="1.0" stroke-linejoin="round" stroke-linecap="butt" d="m277.00787 17.296587l405.98425 0l0 42.015747l-405.98425 0z" fill-rule="evenodd"/><path fill="#000000" d="m462.92606 38.466587l0 -0.984375l8.21875 -4.09375l0 1.1875l-7.03125 3.40625l7.03125 3.40625l0 1.15625l-8.21875 -4.078125zm16.262604 5.75l0 -5.9375q0 -1.0 -0.484375 -1.515625q-0.46875 -0.53125 -1.546875 -0.53125q-0.765625 0 -1.484375 0.390625q-0.71875 0.390625 -1.1875 1.015625l0 6.578125l-1.390625 0l0 -12.437502l1.390625 0l0 4.734377q0.59375 -0.6875 1.453125 -1.109375q0.859375 -0.421875 1.78125 -0.421875q2.875 0 2.875 2.875l0 6.359375l-1.40625 0zm6.1263733 0l0 -10.390625l-2.0 2.109375l-0.9375 -0.953125l3.109375 -3.203127l1.375 0l0 12.437502l-1.546875 0zm3.543213 -1.671875l0 -1.15625l7.015625 -3.40625l-7.015625 -3.40625l0 -1.1875l8.21875 4.09375l0 0.984375l-8.21875 4.078125z" fill-rule="nonzero"/><path fill="#cfe2f3" d="m241.76115 87.0l153.82677 0l0 35.55905l-153.82677 0z" fill-rule="evenodd"/><path stroke="#000000" stroke-width="1.0" stroke-linejoin="round" stroke-linecap="butt" d="m241.76115 87.0l153.82677 0l0 35.55905l-153.82677 0z" fill-rule="evenodd"/><path fill="#000000" d="m281.85318 104.69063l0 -0.703125l5.875 -2.921875l0 0.84375l-5.03125 2.4375l5.03125 2.421875l0 0.828125l-5.875 -2.90625zm10.431946 4.265625q-1.375 0 -2.171875 -1.125l0 3.421875l-1.0 0l0 -8.890625l1.0 0l0 0.953125q0.34375 -0.484375 0.90625 -0.796875q0.578125 -0.3125 1.265625 -0.3125q1.296875 0 2.078125 0.90625q0.78125 0.90625 0.78125 2.46875q0 1.546875 -0.78125 2.46875q-0.765625 0.90625 -2.078125 0.90625zm-0.25 -0.890625q0.921875 0 1.484375 -0.671875q0.578125 -0.6875 0.578125 -1.8125q0 -1.109375 -0.5625 -1.796875q-0.5625 -0.6875 -1.5 -0.6875q-0.609375 0 -1.140625 0.296875q-0.515625 0.296875 -0.78125 0.734375l0 2.90625q0.265625 0.421875 0.78125 0.734375q0.53125 0.296875 1.140625 0.296875zm4.701782 0.734375l0 -8.890625l1.0 0l0 8.890625l-1.0 0zm7.03006 0l0 -0.734375q-0.8125 0.890625 -2.140625 0.890625q-0.96875 0 -1.609375 -0.609375q-0.640625 -0.609375 -0.640625 -1.515625q0 -0.9375 0.625 -1.53125q0.640625 -0.59375 1.625 -0.59375q1.390625 0 2.140625 0.875l0 -1.15625q0 -0.65625 -0.46875 -1.0q-0.453125 -0.359375 -1.15625 -0.359375q-1.140625 0 -1.984375 0.890625l-0.46875 -0.6875q1.03125 -1.0625 2.578125 -1.0625q1.1875 0 1.84375 0.578125q0.65625 0.5625 0.65625 1.59375l0 4.421875l-1.0 0zm-1.78125 -0.5625q1.1875 0 1.78125 -0.796875l0 -1.21875q-0.59375 -0.796875 -1.78125 -0.796875q-0.703125 0 -1.140625 0.40625q-0.4375 0.390625 -0.4375 1.015625q0 0.609375 0.4375 1.0q0.4375 0.390625 1.140625 0.390625zm4.5707703 2.171875q0.21875 0.109375 0.546875 0.109375q0.328125 0 0.546875 -0.140625q0.234375 -0.140625 0.421875 -0.53125l0.421875 -0.984375l-2.6875 -6.5l1.078125 0l2.140625 5.28125l2.125 -5.28125l1.09375 0l-3.21875 7.75q-0.53125 1.265625 -1.890625 1.296875q-0.390625 0 -0.734375 -0.09375l0.15625 -0.90625zm9.640137 -1.453125q-1.453125 0 -2.375 -0.9375q-0.90625 -0.953125 -0.90625 -2.4375q0 -1.4375 0.90625 -2.40625q0.90625 -0.96875 2.265625 -0.96875q1.390625 0 2.234375 0.96875q0.859375 0.953125 0.859375 2.484375l0 0.25l-5.21875 0q0.0625 0.984375 0.71875 1.609375q0.65625 0.609375 1.609375 0.609375q1.171875 0 1.984375 -0.8125l0.484375 0.65625q-0.984375 0.984375 -2.5625 0.984375zm2.0 -3.78125q0 -0.890625 -0.59375 -1.515625q-0.578125 -0.625 -1.53125 -0.625q-0.890625 0 -1.484375 0.625q-0.59375 0.625 -0.625 1.515625l4.234375 0zm2.5974731 3.625l0 -6.4375l1.0 0l0 1.046875q0.890625 -1.1875 2.140625 -1.1875l0 1.03125l-0.390625 -0.03125q-0.453125 0 -1.0 0.328125q-0.546875 0.3125 -0.75 0.6875l0 4.5625l-1.0 0zm8.492004 0.15625q-1.96875 0 -3.1875 -1.296875q-1.21875 -1.3125 -1.21875 -3.296875q0 -2.0 1.21875 -3.296875q1.234375 -1.296875 3.1875 -1.296875q1.953125 0 3.171875 1.3125q1.234375 1.296875 1.234375 3.28125q0 2.0 -1.234375 3.296875q-1.234375 1.296875 -3.171875 1.296875zm0 -0.984375q1.453125 0 2.359375 -1.015625q0.90625 -1.015625 0.90625 -2.59375q0 -1.59375 -0.90625 -2.59375q-0.90625 -1.015625 -2.359375 -1.015625q-1.4375 0 -2.359375 0.984375q-0.90625 0.984375 -0.90625 2.625q0 1.59375 0.890625 2.609375q0.90625 1.0 2.375 1.0zm10.445984 0.828125l0 -4.21875q0 -0.84375 -0.390625 -1.15625q-0.390625 -0.328125 -1.046875 -0.328125q-0.5625 0 -1.109375 0.296875q-0.53125 0.296875 -0.796875 0.703125l0 4.703125l-1.0 0l0 -6.4375l1.0 0l0 0.9375q0.40625 -0.484375 1.015625 -0.78125q0.609375 -0.3125 1.28125 -0.3125q2.046875 0 2.046875 2.078125l0 4.515625l-1.0 0zm5.9062805 0.15625q-1.453125 0 -2.375 -0.9375q-0.90625 -0.953125 -0.90625 -2.4375q0 -1.4375 0.90625 -2.40625q0.90625 -0.96875 2.265625 -0.96875q1.390625 0 2.234375 0.96875q0.859375 0.953125 0.859375 2.484375l0 0.25l-5.21875 0q0.0625 0.984375 0.71875 1.609375q0.65625 0.609375 1.609375 0.609375q1.171875 0 1.984375 -0.8125l0.484375 0.65625q-0.984375 0.984375 -2.5625 0.984375zm2.0 -3.78125q0 -0.890625 -0.59375 -1.515625q-0.578125 -0.625 -1.53125 -0.625q-0.890625 0 -1.484375 0.625q-0.59375 0.625 -0.625 1.515625l4.234375 0zm1.9880676 2.421875l0 -0.828125l5.0 -2.421875l-5.0 -2.4375l0 -0.84375l5.875 2.921875l0 0.703125l-5.875 2.90625z" fill-rule="nonzero"/><path fill="#cfe2f3" d="m241.76115 128.12335l153.82677 0l0 35.559067l-153.82677 0z" fill-rule="evenodd"/><path stroke="#000000" stroke-width="1.0" stroke-linejoin="round" stroke-linecap="butt" d="m241.76115 128.12335l153.82677 0l0 35.559067l-153.82677 0z" fill-rule="evenodd"/><path fill="#000000" d="m282.5665 145.81398l0 -0.703125l5.875 -2.921875l0 0.84375l-5.03125 2.4375l5.03125 2.421875l0 0.828125l-5.875 -2.90625zm10.431976 4.265625q-1.375 0 -2.171875 -1.125l0 3.421875l-1.0 0l0 -8.890625l1.0 0l0 0.953125q0.34375 -0.484375 0.90625 -0.796875q0.578125 -0.3125 1.265625 -0.3125q1.296875 0 2.078125 0.90625q0.78125 0.90625 0.78125 2.46875q0 1.546875 -0.78125 2.46875q-0.765625 0.90625 -2.078125 0.90625zm-0.25 -0.890625q0.921875 0 1.484375 -0.671875q0.578125 -0.6875 0.578125 -1.8125q0 -1.109375 -0.5625 -1.796875q-0.5625 -0.6875 -1.5 -0.6875q-0.609375 0 -1.140625 0.296875q-0.515625 0.296875 -0.78125 0.734375l0 2.90625q0.265625 0.421875 0.78125 0.734375q0.53125 0.296875 1.140625 0.296875zm4.701782 0.734375l0 -8.890625l1.0 0l0 8.890625l-1.0 0zm7.03006 0l0 -0.734375q-0.8125 0.890625 -2.140625 0.890625q-0.96875 0 -1.609375 -0.609375q-0.640625 -0.609375 -0.640625 -1.515625q0 -0.9375 0.625 -1.53125q0.640625 -0.59375 1.625 -0.59375q1.390625 0 2.140625 0.875l0 -1.15625q0 -0.65625 -0.46875 -1.0q-0.453125 -0.359375 -1.15625 -0.359375q-1.140625 0 -1.984375 0.890625l-0.46875 -0.6875q1.03125 -1.0625 2.578125 -1.0625q1.1875 0 1.84375 0.578125q0.65625 0.5625 0.65625 1.59375l0 4.421875l-1.0 0zm-1.78125 -0.5625q1.1875 0 1.78125 -0.796875l0 -1.21875q-0.59375 -0.796875 -1.78125 -0.796875q-0.703125 0 -1.140625 0.40625q-0.4375 0.390625 -0.4375 1.015625q0 0.609375 0.4375 1.0q0.4375 0.390625 1.140625 0.390625zm4.5707703 2.171875q0.21875 0.109375 0.546875 0.109375q0.328125 0 0.546875 -0.140625q0.234375 -0.140625 0.421875 -0.53125l0.421875 -0.984375l-2.6875 -6.5l1.078125 0l2.140625 5.28125l2.125 -5.28125l1.09375 0l-3.21875 7.75q-0.53125 1.265625 -1.890625 1.296875q-0.390625 0 -0.734375 -0.09375l0.15625 -0.90625zm9.640137 -1.453125q-1.453125 0 -2.375 -0.9375q-0.90625 -0.953125 -0.90625 -2.4375q0 -1.4375 0.90625 -2.40625q0.90625 -0.96875 2.265625 -0.96875q1.390625 0 2.234375 0.96875q0.859375 0.953125 0.859375 2.484375l0 0.25l-5.21875 0q0.0625 0.984375 0.71875 1.609375q0.65625 0.609375 1.609375 0.609375q1.171875 0 1.984375 -0.8125l0.484375 0.65625q-0.984375 0.984375 -2.5625 0.984375zm2.0 -3.78125q0 -0.890625 -0.59375 -1.515625q-0.578125 -0.625 -1.53125 -0.625q-0.890625 0 -1.484375 0.625q-0.59375 0.625 -0.625 1.515625l4.234375 0zm2.5974426 3.625l0 -6.4375l1.0 0l0 1.046875q0.890625 -1.1875 2.140625 -1.1875l0 1.03125l-0.390625 -0.03125q-0.453125 0 -1.0 0.328125q-0.546875 0.3125 -0.75 0.6875l0 4.5625l-1.0 0zm5.9926453 0l0 -7.90625l-2.8125 0l0 -0.984375l6.75 0l0 0.984375l-2.828125 0l0 7.90625l-1.109375 0zm10.194092 0l-1.6875 -5.171875l-1.671875 5.171875l-1.0 0l-2.0625 -6.4375l1.046875 0l1.5625 5.125l1.703125 -5.125l0.84375 0l1.703125 5.125l1.5625 -5.125l1.046875 0l-2.046875 6.4375l-1.0 0zm7.0171814 0.15625q-1.40625 0 -2.296875 -0.953125q-0.890625 -0.953125 -0.890625 -2.421875q0 -1.5 0.890625 -2.4375q0.890625 -0.9375 2.296875 -0.9375q1.40625 0 2.296875 0.9375q0.890625 0.9375 0.890625 2.4375q0 1.46875 -0.890625 2.421875q-0.890625 0.953125 -2.296875 0.953125zm0 -0.890625q0.9375 0 1.53125 -0.6875q0.59375 -0.703125 0.59375 -1.796875q0 -1.09375 -0.59375 -1.78125q-0.59375 -0.703125 -1.53125 -0.703125q-0.9375 0 -1.546875 0.703125q-0.59375 0.6875 -0.59375 1.78125q0 1.09375 0.59375 1.796875q0.59375 0.6875 1.546875 0.6875zm4.201782 -0.46875l0 -0.828125l5.0 -2.421875l-5.0 -2.4375l0 -0.84375l5.875 2.921875l0 0.703125l-5.875 2.90625z" fill-rule="nonzero"/><path fill="#cfe2f3" d="m565.31494 669.26245l153.82678 0l0 42.015747l-153.82678 0z" fill-rule="evenodd"/><path stroke="#000000" stroke-width="1.0" stroke-linejoin="round" stroke-linecap="butt" d="m565.31494 669.26245l153.82678 0l0 42.015747l-153.82678 0z" fill-rule="evenodd"/><path fill="#000000" d="m587.43164 690.4325l0 -0.984375l8.21875 -4.09375l0 1.1875l-7.03125 3.40625l7.03125 3.40625l0 1.15625l-8.21875 -4.078125zm13.778198 9.40625q-1.15625 0 -2.0 -0.28125q-0.828125 -0.28125 -1.640625 -1.0625l0.71875 -1.046875q0.5625 0.671875 1.25 0.953125q0.703125 0.28125 1.671875 0.28125q1.390625 0 2.140625 -0.71875q0.75 -0.71875 0.75 -1.984375l0 -1.296875q-0.484375 0.703125 -1.28125 1.15625q-0.78125 0.453125 -1.734375 0.453125q-1.828125 0 -2.921875 -1.28125q-1.09375 -1.296875 -1.09375 -3.375q0 -2.171875 1.109375 -3.421875q1.109375 -1.265625 2.90625 -1.265625q1.859375 0 3.015625 1.578125l0 -1.359375l1.40625 0l0 8.75q0 1.90625 -1.125 2.90625q-1.109375 1.015625 -3.171875 1.015625zm0.203125 -4.78125q0.765625 0 1.515625 -0.40625q0.765625 -0.40625 1.171875 -1.0625l0 -3.9375q-0.40625 -0.65625 -1.171875 -1.046875q-0.765625 -0.40625 -1.515625 -0.40625q-1.3125 0 -2.109375 0.953125q-0.78125 0.953125 -0.78125 2.484375q0 1.546875 0.796875 2.484375q0.8125 0.9375 2.09375 0.9375zm12.521179 1.125l0 -1.03125q-1.140625 1.25 -2.984375 1.25q-1.359375 0 -2.265625 -0.859375q-0.890625 -0.859375 -0.890625 -2.125q0 -1.296875 0.890625 -2.125q0.890625 -0.84375 2.265625 -0.84375q1.9375 0 2.984375 1.234375l0 -1.625q0 -0.90625 -0.640625 -1.390625q-0.640625 -0.5 -1.640625 -0.5q-1.578125 0 -2.75 1.25l-0.65625 -0.984375q1.4375 -1.484375 3.59375 -1.484375q1.671875 0 2.578125 0.8125q0.921875 0.796875 0.921875 2.234375l0 6.1875l-1.40625 0zm-2.484375 -0.78125q1.671875 0 2.484375 -1.125l0 -1.6875q-0.8125 -1.125 -2.484375 -1.125q-0.984375 0 -1.609375 0.546875q-0.609375 0.546875 -0.609375 1.421875q0 0.859375 0.609375 1.421875q0.625 0.546875 1.609375 0.546875zm17.566223 0.78125l0 -6.125q0 -1.859375 -1.671875 -1.859375q-0.703125 0 -1.375 0.421875q-0.65625 0.421875 -1.0 0.953125l0 6.609375l-1.40625 0l0 -6.125q0 -1.859375 -1.65625 -1.859375q-0.6875 0 -1.34375 0.4375q-0.65625 0.421875 -1.03125 0.96875l0 6.578125l-1.390625 0l0 -9.015625l1.390625 0l0 1.3125q0.3125 -0.546875 1.1875 -1.03125q0.890625 -0.5 1.71875 -0.5q1.046875 0 1.625 0.484375q0.59375 0.484375 0.8125 1.1875q0.453125 -0.71875 1.3125 -1.1875q0.859375 -0.484375 1.703125 -0.484375q2.515625 0 2.515625 2.71875l0 6.515625l-1.390625 0zm8.26178 0.21875q-2.03125 0 -3.3125 -1.3125q-1.28125 -1.328125 -1.28125 -3.421875q0 -2.0 1.265625 -3.359375q1.28125 -1.359375 3.171875 -1.359375q1.9375 0 3.125 1.34375q1.203125 1.34375 1.203125 3.484375l0 0.359375l-7.296875 0q0.078125 1.375 1.0 2.25q0.921875 0.859375 2.25 0.859375q1.640625 0 2.78125 -1.140625l0.671875 0.921875q-1.375 1.375 -3.578125 1.375zm2.796875 -5.296875q0 -1.25 -0.828125 -2.125q-0.8125 -0.875 -2.140625 -0.875q-1.25 0 -2.078125 0.875q-0.828125 0.875 -0.875 2.125l5.921875 0zm10.894043 5.078125l-3.171875 -4.9375l-2.484375 0l0 4.9375l-1.546875 0l0 -12.4375l5.0 0q1.75 0 2.828125 1.046875q1.078125 1.03125 1.078125 2.703125q0 1.5625 -0.90625 2.53125q-0.90625 0.953125 -2.328125 1.078125l3.359375 5.078125l-1.828125 0zm-2.390625 -6.3125q1.125 0 1.796875 -0.65625q0.6875 -0.65625 0.6875 -1.71875q0 -1.0625 -0.6875 -1.71875q-0.671875 -0.65625 -1.796875 -0.65625l-3.265625 0l0 4.75l3.265625 0zm9.986145 6.53125q-2.03125 0 -3.3125 -1.3125q-1.28125 -1.328125 -1.28125 -3.421875q0 -2.0 1.265625 -3.359375q1.28125 -1.359375 3.171875 -1.359375q1.9375 0 3.125 1.34375q1.203125 1.34375 1.203125 3.484375l0 0.359375l-7.296875 0q0.078125 1.375 1.0 2.25q0.921875 0.859375 2.25 0.859375q1.640625 0 2.78125 -1.140625l0.671875 0.921875q-1.375 1.375 -3.578125 1.375zm2.796875 -5.296875q0 -1.25 -0.828125 -2.125q-0.8125 -0.875 -2.140625 -0.875q-1.25 0 -2.078125 0.875q-0.828125 0.875 -0.875 2.125l5.921875 0zm6.487854 5.296875q-2.296875 0 -3.640625 -1.40625l0.734375 -1.015625q0.453125 0.53125 1.234375 0.90625q0.796875 0.375 1.734375 0.375q1.046875 0 1.578125 -0.4375q0.546875 -0.4375 0.546875 -1.109375q0 -0.59375 -0.59375 -0.9375q-0.578125 -0.34375 -2.1875 -0.71875q-1.359375 -0.28125 -2.078125 -0.875q-0.71875 -0.609375 -0.71875 -1.640625q0 -1.140625 0.90625 -1.859375q0.921875 -0.734375 2.453125 -0.734375q2.03125 0 3.34375 1.3125l-0.65625 0.96875q-0.40625 -0.484375 -1.109375 -0.8125q-0.703125 -0.328125 -1.578125 -0.328125q-0.9375 0 -1.46875 0.40625q-0.53125 0.40625 -0.53125 1.015625q0 0.53125 0.59375 0.859375q0.609375 0.3125 2.203125 0.640625q1.359375 0.328125 2.0625 0.96875q0.71875 0.640625 0.71875 1.703125q0 1.25 -0.96875 1.984375q-0.96875 0.734375 -2.578125 0.734375zm9.893921 0q-2.03125 0 -3.3125 -1.3125q-1.28125 -1.328125 -1.28125 -3.421875q0 -2.0 1.265625 -3.359375q1.28125 -1.359375 3.171875 -1.359375q1.9375 0 3.125 1.34375q1.203125 1.34375 1.203125 3.484375l0 0.359375l-7.296875 0q0.078125 1.375 1.0 2.25q0.921875 0.859375 2.25 0.859375q1.640625 0 2.78125 -1.140625l0.671875 0.921875q-1.375 1.375 -3.578125 1.375zm2.796875 -5.296875q0 -1.25 -0.828125 -2.125q-0.8125 -0.875 -2.140625 -0.875q-1.25 0 -2.078125 0.875q-0.828125 0.875 -0.875 2.125l5.921875 0zm5.909668 5.296875q-2.0 0 -2.0 -2.109375l0 -5.890625l-1.484375 0l0 -1.234375l1.484375 0l0 -2.453125l1.40625 0l0 2.453125l1.828125 0l0 1.234375l-1.828125 0l0 5.59375q0 0.515625 0.21875 0.84375q0.234375 0.3125 0.703125 0.3125q0.578125 0 0.9375 -0.375l0.421875 1.046875q-0.578125 0.578125 -1.6875 0.578125zm2.3599854 -1.890625l0 -1.15625l7.015625 -3.40625l-7.015625 -3.40625l0 -1.1875l8.21875 4.09375l0 0.984375l-8.21875 4.078125z" fill-rule="nonzero"/><path fill="#cfe2f3" d="m240.85301 176.58792l153.82677 0l0 153.82678l-153.82677 0z" fill-rule="evenodd"/><path stroke="#000000" stroke-width="1.0" stroke-linejoin="round" stroke-linecap="butt" d="m240.85301 176.58792l153.82677 0l0 153.82678l-153.82677 0z" fill-rule="evenodd"/><path fill="#cfe2f3" d="m403.0866 176.58792l153.82678 0l0 153.82678l-153.82678 0z" fill-rule="evenodd"/><path stroke="#000000" stroke-width="1.0" stroke-linejoin="round" stroke-linecap="butt" d="m403.0866 176.58792l153.82678 0l0 153.82678l-153.82678 0z" fill-rule="evenodd"/><path fill="#cfe2f3" d="m565.3202 178.31233l153.82678 0l0 153.82677l-153.82678 0z" fill-rule="evenodd"/><path stroke="#000000" stroke-width="1.0" stroke-linejoin="round" stroke-linecap="butt" d="m565.3202 178.31233l153.82678 0l0 153.82677l-153.82678 0z" fill-rule="evenodd"/><path fill="#cfe2f3" d="m240.85301 338.2257l153.82677 0l0 153.82678l-153.82677 0z" fill-rule="evenodd"/><path stroke="#000000" stroke-width="1.0" stroke-linejoin="round" stroke-linecap="butt" d="m240.85301 338.2257l153.82677 0l0 153.82678l-153.82677 0z" fill-rule="evenodd"/><path fill="#cfe2f3" d="m403.0866 338.2257l153.82678 0l0 153.82678l-153.82678 0z" fill-rule="evenodd"/><path stroke="#000000" stroke-width="1.0" stroke-linejoin="round" stroke-linecap="butt" d="m403.0866 338.2257l153.82678 0l0 153.82678l-153.82678 0z" fill-rule="evenodd"/><path fill="#cfe2f3" d="m565.3202 338.2257l153.82678 0l0 153.82678l-153.82678 0z" fill-rule="evenodd"/><path stroke="#000000" stroke-width="1.0" stroke-linejoin="round" stroke-linecap="butt" d="m565.3202 338.2257l153.82678 0l0 153.82678l-153.82678 0z" fill-rule="evenodd"/><path fill="#cfe2f3" d="m240.85301 499.86353l153.82677 0l0 153.82678l-153.82677 0z" fill-rule="evenodd"/><path stroke="#000000" stroke-width="1.0" stroke-linejoin="round" stroke-linecap="butt" d="m240.85301 499.86353l153.82677 0l0 153.82678l-153.82677 0z" fill-rule="evenodd"/><path fill="#cfe2f3" d="m403.0866 499.86353l153.82678 0l0 153.82678l-153.82678 0z" fill-rule="evenodd"/><path stroke="#000000" stroke-width="1.0" stroke-linejoin="round" stroke-linecap="butt" d="m403.0866 499.86353l153.82678 0l0 153.82678l-153.82678 0z" fill-rule="evenodd"/><path fill="#cfe2f3" d="m565.3202 499.86353l153.82678 0l0 153.82678l-153.82678 0z" fill-rule="evenodd"/><path stroke="#000000" stroke-width="1.0" stroke-linejoin="round" stroke-linecap="butt" d="m565.3202 499.86353l153.82678 0l0 153.82678l-153.82678 0z" fill-rule="evenodd"/><path fill="#cfe2f3" d="m285.93964 232.49344l63.653534 0l0 42.015747l-63.653534 0z" fill-rule="evenodd"/><path fill="#000000" d="m296.97052 253.66344l0 -0.984375l8.21875 -4.09375l0 1.1875l-7.03125 3.40625l7.03125 3.4062347l0 1.15625l-8.21875 -4.0781097zm16.684479 5.7499847l0 -1.34375q-0.5 0.6875 -1.296875 1.125q-0.78125 0.4375 -1.734375 0.4375q-1.8125 0 -2.921875 -1.28125q-1.09375 -1.28125 -1.09375 -3.4374847q0 -2.15625 1.109375 -3.4375q1.109375 -1.296875 2.90625 -1.296875q0.90625 0 1.703125 0.421875q0.796875 0.421875 1.328125 1.15625l0 -4.78125l1.40625 0l0 12.437485l-1.40625 0zm-2.703125 -1.03125q0.84375 0 1.59375 -0.40625q0.75 -0.40625 1.109375 -1.0l0 -4.0937347q-0.359375 -0.59375 -1.109375 -1.015625q-0.75 -0.4375 -1.59375 -0.4375q-1.296875 0 -2.09375 0.953125q-0.796875 0.953125 -0.796875 2.53125q0 1.5468597 0.78125 2.5156097q0.796875 0.953125 2.109375 0.953125zm7.6023254 -9.26561q-0.375 0 -0.65625 -0.265625q-0.28125 -0.28125 -0.28125 -0.671875q0 -0.390625 0.28125 -0.671875q0.28125 -0.28125 0.65625 -0.28125q0.390625 0 0.671875 0.28125q0.28125 0.28125 0.28125 0.671875q0 0.390625 -0.28125 0.671875q-0.28125 0.265625 -0.671875 0.265625zm-0.6875 10.29686l0 -9.01561l1.390625 0l0 9.01561l-1.390625 0zm6.6039124 0l-3.75 -9.01561l1.5 0l3.015625 7.3906097l2.984375 -7.3906097l1.515625 0l-3.75 9.01561l-1.515625 0zm5.875946 -1.671875l0 -1.15625l7.015625 -3.4062347l-7.015625 -3.40625l0 -1.1875l8.21875 4.09375l0 0.984375l-8.21875 4.0781097z" fill-rule="nonzero"/><path fill="#cfe2f3" d="m448.17322 232.49344l63.653564 0l0 42.015747l-63.653564 0z" fill-rule="evenodd"/><path fill="#000000" d="m459.20413 253.66344l0 -0.984375l8.21875 -4.09375l0 1.1875l-7.03125 3.40625l7.03125 3.4062347l0 1.15625l-8.21875 -4.0781097zm16.684448 5.7499847l0 -1.34375q-0.5 0.6875 -1.296875 1.125q-0.78125 0.4375 -1.734375 0.4375q-1.8125 0 -2.921875 -1.28125q-1.09375 -1.28125 -1.09375 -3.4374847q0 -2.15625 1.109375 -3.4375q1.109375 -1.296875 2.90625 -1.296875q0.90625 0 1.703125 0.421875q0.796875 0.421875 1.328125 1.15625l0 -4.78125l1.40625 0l0 12.437485l-1.40625 0zm-2.703125 -1.03125q0.84375 0 1.59375 -0.40625q0.75 -0.40625 1.109375 -1.0l0 -4.0937347q-0.359375 -0.59375 -1.109375 -1.015625q-0.75 -0.4375 -1.59375 -0.4375q-1.296875 0 -2.09375 0.953125q-0.796875 0.953125 -0.796875 2.53125q0 1.5468597 0.78125 2.5156097q0.796875 0.953125 2.109375 0.953125zm7.602356 -9.26561q-0.375 0 -0.65625 -0.265625q-0.28125 -0.28125 -0.28125 -0.671875q0 -0.390625 0.28125 -0.671875q0.28125 -0.28125 0.65625 -0.28125q0.390625 0 0.671875 0.28125q0.28125 0.28125 0.28125 0.671875q0 0.390625 -0.28125 0.671875q-0.28125 0.265625 -0.671875 0.265625zm-0.6875 10.29686l0 -9.01561l1.390625 0l0 9.01561l-1.390625 0zm6.6039124 0l-3.75 -9.01561l1.5 0l3.015625 7.3906097l2.984375 -7.3906097l1.515625 0l-3.75 9.01561l-1.515625 0zm5.875946 -1.671875l0 -1.15625l7.015625 -3.4062347l-7.015625 -3.40625l0 -1.1875l8.21875 4.09375l0 0.984375l-8.21875 4.0781097z" fill-rule="nonzero"/><path fill="#cfe2f3" d="m610.4068 234.21785l63.653564 0l0 42.01573l-63.653564 0z" fill-rule="evenodd"/><path fill="#000000" d="m621.43774 255.38785l0 -0.984375l8.21875 -4.09375l0 1.1875l-7.03125 3.40625l7.03125 3.40625l0 1.15625l-8.21875 -4.078125zm16.684448 5.75l0 -1.34375q-0.5 0.6875 -1.296875 1.125q-0.78125 0.4375 -1.734375 0.4375q-1.8125 0 -2.921875 -1.28125q-1.09375 -1.28125 -1.09375 -3.4375q0 -2.15625 1.109375 -3.4375q1.109375 -1.296875 2.90625 -1.296875q0.90625 0 1.703125 0.421875q0.796875 0.421875 1.328125 1.15625l0 -4.78125l1.40625 0l0 12.4375l-1.40625 0zm-2.703125 -1.03125q0.84375 0 1.59375 -0.40625q0.75 -0.40625 1.109375 -1.0l0 -4.09375q-0.359375 -0.59375 -1.109375 -1.015625q-0.75 -0.4375 -1.59375 -0.4375q-1.296875 0 -2.09375 0.953125q-0.796875 0.953125 -0.796875 2.53125q0 1.546875 0.78125 2.515625q0.796875 0.953125 2.109375 0.953125zm7.602356 -9.265625q-0.375 0 -0.65625 -0.265625q-0.28125 -0.28125 -0.28125 -0.671875q0 -0.390625 0.28125 -0.671875q0.28125 -0.28125 0.65625 -0.28125q0.390625 0 0.671875 0.28125q0.28125 0.28125 0.28125 0.671875q0 0.390625 -0.28125 0.671875q-0.28125 0.265625 -0.671875 0.265625zm-0.6875 10.296875l0 -9.015625l1.390625 0l0 9.015625l-1.390625 0zm6.603882 0l-3.75 -9.015625l1.5 0l3.015625 7.390625l2.984375 -7.390625l1.515625 0l-3.75 9.015625l-1.515625 0zm5.8759766 -1.671875l0 -1.15625l7.015625 -3.40625l-7.015625 -3.40625l0 -1.1875l8.21875 4.09375l0 0.984375l-8.21875 4.078125z" fill-rule="nonzero"/><path fill="#cfe2f3" d="m285.93964 394.13123l63.653534 0l0 42.015747l-63.653534 0z" fill-rule="evenodd"/><path fill="#000000" d="m296.97052 415.30124l0 -0.984375l8.21875 -4.09375l0 1.1875l-7.03125 3.40625l7.03125 3.40625l0 1.15625l-8.21875 -4.078125zm16.684479 5.75l0 -1.34375q-0.5 0.6875 -1.296875 1.125q-0.78125 0.4375 -1.734375 0.4375q-1.8125 0 -2.921875 -1.28125q-1.09375 -1.28125 -1.09375 -3.4375q0 -2.15625 1.109375 -3.4375q1.109375 -1.296875 2.90625 -1.296875q0.90625 0 1.703125 0.421875q0.796875 0.421875 1.328125 1.15625l0 -4.78125l1.40625 0l0 12.4375l-1.40625 0zm-2.703125 -1.03125q0.84375 0 1.59375 -0.40625q0.75 -0.40625 1.109375 -1.0l0 -4.09375q-0.359375 -0.59375 -1.109375 -1.015625q-0.75 -0.4375 -1.59375 -0.4375q-1.296875 0 -2.09375 0.953125q-0.796875 0.953125 -0.796875 2.53125q0 1.546875 0.78125 2.515625q0.796875 0.953125 2.109375 0.953125zm7.6023254 -9.265625q-0.375 0 -0.65625 -0.265625q-0.28125 -0.28125 -0.28125 -0.671875q0 -0.390625 0.28125 -0.671875q0.28125 -0.28125 0.65625 -0.28125q0.390625 0 0.671875 0.28125q0.28125 0.28125 0.28125 0.671875q0 0.390625 -0.28125 0.671875q-0.28125 0.265625 -0.671875 0.265625zm-0.6875 10.296875l0 -9.015625l1.390625 0l0 9.015625l-1.390625 0zm6.6039124 0l-3.75 -9.015625l1.5 0l3.015625 7.390625l2.984375 -7.390625l1.515625 0l-3.75 9.015625l-1.515625 0zm5.875946 -1.671875l0 -1.15625l7.015625 -3.40625l-7.015625 -3.40625l0 -1.1875l8.21875 4.09375l0 0.984375l-8.21875 4.078125z" fill-rule="nonzero"/><path fill="#cfe2f3" d="m448.17322 394.13123l63.653564 0l0 42.015747l-63.653564 0z" fill-rule="evenodd"/><path fill="#000000" d="m459.20413 415.30124l0 -0.984375l8.21875 -4.09375l0 1.1875l-7.03125 3.40625l7.03125 3.40625l0 1.15625l-8.21875 -4.078125zm16.684448 5.75l0 -1.34375q-0.5 0.6875 -1.296875 1.125q-0.78125 0.4375 -1.734375 0.4375q-1.8125 0 -2.921875 -1.28125q-1.09375 -1.28125 -1.09375 -3.4375q0 -2.15625 1.109375 -3.4375q1.109375 -1.296875 2.90625 -1.296875q0.90625 0 1.703125 0.421875q0.796875 0.421875 1.328125 1.15625l0 -4.78125l1.40625 0l0 12.4375l-1.40625 0zm-2.703125 -1.03125q0.84375 0 1.59375 -0.40625q0.75 -0.40625 1.109375 -1.0l0 -4.09375q-0.359375 -0.59375 -1.109375 -1.015625q-0.75 -0.4375 -1.59375 -0.4375q-1.296875 0 -2.09375 0.953125q-0.796875 0.953125 -0.796875 2.53125q0 1.546875 0.78125 2.515625q0.796875 0.953125 2.109375 0.953125zm7.602356 -9.265625q-0.375 0 -0.65625 -0.265625q-0.28125 -0.28125 -0.28125 -0.671875q0 -0.390625 0.28125 -0.671875q0.28125 -0.28125 0.65625 -0.28125q0.390625 0 0.671875 0.28125q0.28125 0.28125 0.28125 0.671875q0 0.390625 -0.28125 0.671875q-0.28125 0.265625 -0.671875 0.265625zm-0.6875 10.296875l0 -9.015625l1.390625 0l0 9.015625l-1.390625 0zm6.6039124 0l-3.75 -9.015625l1.5 0l3.015625 7.390625l2.984375 -7.390625l1.515625 0l-3.75 9.015625l-1.515625 0zm5.875946 -1.671875l0 -1.15625l7.015625 -3.40625l-7.015625 -3.40625l0 -1.1875l8.21875 4.09375l0 0.984375l-8.21875 4.078125z" fill-rule="nonzero"/><path fill="#cfe2f3" d="m610.4068 394.13123l63.653564 0l0 42.015747l-63.653564 0z" fill-rule="evenodd"/><path fill="#000000" d="m621.43774 415.30124l0 -0.984375l8.21875 -4.09375l0 1.1875l-7.03125 3.40625l7.03125 3.40625l0 1.15625l-8.21875 -4.078125zm16.684448 5.75l0 -1.34375q-0.5 0.6875 -1.296875 1.125q-0.78125 0.4375 -1.734375 0.4375q-1.8125 0 -2.921875 -1.28125q-1.09375 -1.28125 -1.09375 -3.4375q0 -2.15625 1.109375 -3.4375q1.109375 -1.296875 2.90625 -1.296875q0.90625 0 1.703125 0.421875q0.796875 0.421875 1.328125 1.15625l0 -4.78125l1.40625 0l0 12.4375l-1.40625 0zm-2.703125 -1.03125q0.84375 0 1.59375 -0.40625q0.75 -0.40625 1.109375 -1.0l0 -4.09375q-0.359375 -0.59375 -1.109375 -1.015625q-0.75 -0.4375 -1.59375 -0.4375q-1.296875 0 -2.09375 0.953125q-0.796875 0.953125 -0.796875 2.53125q0 1.546875 0.78125 2.515625q0.796875 0.953125 2.109375 0.953125zm7.602356 -9.265625q-0.375 0 -0.65625 -0.265625q-0.28125 -0.28125 -0.28125 -0.671875q0 -0.390625 0.28125 -0.671875q0.28125 -0.28125 0.65625 -0.28125q0.390625 0 0.671875 0.28125q0.28125 0.28125 0.28125 0.671875q0 0.390625 -0.28125 0.671875q-0.28125 0.265625 -0.671875 0.265625zm-0.6875 10.296875l0 -9.015625l1.390625 0l0 9.015625l-1.390625 0zm6.603882 0l-3.75 -9.015625l1.5 0l3.015625 7.390625l2.984375 -7.390625l1.515625 0l-3.75 9.015625l-1.515625 0zm5.8759766 -1.671875l0 -1.15625l7.015625 -3.40625l-7.015625 -3.40625l0 -1.1875l8.21875 4.09375l0 0.984375l-8.21875 4.078125z" fill-rule="nonzero"/><path fill="#cfe2f3" d="m285.93964 563.04987l63.653534 0l0 42.015747l-63.653534 0z" fill-rule="evenodd"/><path fill="#000000" d="m296.97052 584.21985l0 -0.984375l8.21875 -4.09375l0 1.1875l-7.03125 3.40625l7.03125 3.40625l0 1.15625l-8.21875 -4.078125zm16.684479 5.75l0 -1.34375q-0.5 0.6875 -1.296875 1.125q-0.78125 0.4375 -1.734375 0.4375q-1.8125 0 -2.921875 -1.28125q-1.09375 -1.28125 -1.09375 -3.4375q0 -2.15625 1.109375 -3.4375q1.109375 -1.296875 2.90625 -1.296875q0.90625 0 1.703125 0.421875q0.796875 0.421875 1.328125 1.15625l0 -4.78125l1.40625 0l0 12.4375l-1.40625 0zm-2.703125 -1.03125q0.84375 0 1.59375 -0.40625q0.75 -0.40625 1.109375 -1.0l0 -4.09375q-0.359375 -0.59375 -1.109375 -1.015625q-0.75 -0.4375 -1.59375 -0.4375q-1.296875 0 -2.09375 0.953125q-0.796875 0.953125 -0.796875 2.53125q0 1.546875 0.78125 2.515625q0.796875 0.953125 2.109375 0.953125zm7.6023254 -9.265625q-0.375 0 -0.65625 -0.265625q-0.28125 -0.28125 -0.28125 -0.671875q0 -0.390625 0.28125 -0.671875q0.28125 -0.28125 0.65625 -0.28125q0.390625 0 0.671875 0.28125q0.28125 0.28125 0.28125 0.671875q0 0.390625 -0.28125 0.671875q-0.28125 0.265625 -0.671875 0.265625zm-0.6875 10.296875l0 -9.015625l1.390625 0l0 9.015625l-1.390625 0zm6.6039124 0l-3.75 -9.015625l1.5 0l3.015625 7.390625l2.984375 -7.390625l1.515625 0l-3.75 9.015625l-1.515625 0zm5.875946 -1.671875l0 -1.15625l7.015625 -3.40625l-7.015625 -3.40625l0 -1.1875l8.21875 4.09375l0 0.984375l-8.21875 4.078125z" fill-rule="nonzero"/><path fill="#cfe2f3" d="m448.17322 563.04987l63.653564 0l0 42.015747l-63.653564 0z" fill-rule="evenodd"/><path fill="#000000" d="m459.20413 584.21985l0 -0.984375l8.21875 -4.09375l0 1.1875l-7.03125 3.40625l7.03125 3.40625l0 1.15625l-8.21875 -4.078125zm16.684448 5.75l0 -1.34375q-0.5 0.6875 -1.296875 1.125q-0.78125 0.4375 -1.734375 0.4375q-1.8125 0 -2.921875 -1.28125q-1.09375 -1.28125 -1.09375 -3.4375q0 -2.15625 1.109375 -3.4375q1.109375 -1.296875 2.90625 -1.296875q0.90625 0 1.703125 0.421875q0.796875 0.421875 1.328125 1.15625l0 -4.78125l1.40625 0l0 12.4375l-1.40625 0zm-2.703125 -1.03125q0.84375 0 1.59375 -0.40625q0.75 -0.40625 1.109375 -1.0l0 -4.09375q-0.359375 -0.59375 -1.109375 -1.015625q-0.75 -0.4375 -1.59375 -0.4375q-1.296875 0 -2.09375 0.953125q-0.796875 0.953125 -0.796875 2.53125q0 1.546875 0.78125 2.515625q0.796875 0.953125 2.109375 0.953125zm7.602356 -9.265625q-0.375 0 -0.65625 -0.265625q-0.28125 -0.28125 -0.28125 -0.671875q0 -0.390625 0.28125 -0.671875q0.28125 -0.28125 0.65625 -0.28125q0.390625 0 0.671875 0.28125q0.28125 0.28125 0.28125 0.671875q0 0.390625 -0.28125 0.671875q-0.28125 0.265625 -0.671875 0.265625zm-0.6875 10.296875l0 -9.015625l1.390625 0l0 9.015625l-1.390625 0zm6.6039124 0l-3.75 -9.015625l1.5 0l3.015625 7.390625l2.984375 -7.390625l1.515625 0l-3.75 9.015625l-1.515625 0zm5.875946 -1.671875l0 -1.15625l7.015625 -3.40625l-7.015625 -3.40625l0 -1.1875l8.21875 4.09375l0 0.984375l-8.21875 4.078125z" fill-rule="nonzero"/><path fill="#cfe2f3" d="m610.4068 563.04987l63.653564 0l0 42.015747l-63.653564 0z" fill-rule="evenodd"/><path fill="#000000" d="m621.43774 584.21985l0 -0.984375l8.21875 -4.09375l0 1.1875l-7.03125 3.40625l7.03125 3.40625l0 1.15625l-8.21875 -4.078125zm16.684448 5.75l0 -1.34375q-0.5 0.6875 -1.296875 1.125q-0.78125 0.4375 -1.734375 0.4375q-1.8125 0 -2.921875 -1.28125q-1.09375 -1.28125 -1.09375 -3.4375q0 -2.15625 1.109375 -3.4375q1.109375 -1.296875 2.90625 -1.296875q0.90625 0 1.703125 0.421875q0.796875 0.421875 1.328125 1.15625l0 -4.78125l1.40625 0l0 12.4375l-1.40625 0zm-2.703125 -1.03125q0.84375 0 1.59375 -0.40625q0.75 -0.40625 1.109375 -1.0l0 -4.09375q-0.359375 -0.59375 -1.109375 -1.015625q-0.75 -0.4375 -1.59375 -0.4375q-1.296875 0 -2.09375 0.953125q-0.796875 0.953125 -0.796875 2.53125q0 1.546875 0.78125 2.515625q0.796875 0.953125 2.109375 0.953125zm7.602356 -9.265625q-0.375 0 -0.65625 -0.265625q-0.28125 -0.28125 -0.28125 -0.671875q0 -0.390625 0.28125 -0.671875q0.28125 -0.28125 0.65625 -0.28125q0.390625 0 0.671875 0.28125q0.28125 0.28125 0.28125 0.671875q0 0.390625 -0.28125 0.671875q-0.28125 0.265625 -0.671875 0.265625zm-0.6875 10.296875l0 -9.015625l1.390625 0l0 9.015625l-1.390625 0zm6.603882 0l-3.75 -9.015625l1.5 0l3.015625 7.390625l2.984375 -7.390625l1.515625 0l-3.75 9.015625l-1.515625 0zm5.8759766 -1.671875l0 -1.15625l7.015625 -3.40625l-7.015625 -3.40625l0 -1.1875l8.21875 4.09375l0 0.984375l-8.21875 4.078125z" fill-rule="nonzero"/><path fill="#cfe2f3" d="m240.85301 669.26245l316.063 0l0 42.015747l-316.063 0z" fill-rule="evenodd"/><path stroke="#000000" stroke-width="1.0" stroke-linejoin="round" stroke-linecap="butt" d="m240.85301 669.26245l316.063 0l0 42.015747l-316.063 0z" fill-rule="evenodd"/><path fill="#000000" d="m342.1009 690.4325l0 -0.984375l8.21875 -4.09375l0 1.1875l-7.03125 3.40625l7.03125 3.40625l0 1.15625l-8.21875 -4.078125zm13.778198 9.40625q-1.15625 0 -2.0 -0.28125q-0.828125 -0.28125 -1.640625 -1.0625l0.71875 -1.046875q0.5625 0.671875 1.25 0.953125q0.703125 0.28125 1.671875 0.28125q1.390625 0 2.140625 -0.71875q0.75 -0.71875 0.75 -1.984375l0 -1.296875q-0.484375 0.703125 -1.28125 1.15625q-0.78125 0.453125 -1.734375 0.453125q-1.828125 0 -2.921875 -1.28125q-1.09375 -1.296875 -1.09375 -3.375q0 -2.171875 1.109375 -3.421875q1.109375 -1.265625 2.90625 -1.265625q1.859375 0 3.015625 1.578125l0 -1.359375l1.40625 0l0 8.75q0 1.90625 -1.125 2.90625q-1.109375 1.015625 -3.171875 1.015625zm0.203125 -4.78125q0.765625 0 1.515625 -0.40625q0.765625 -0.40625 1.171875 -1.0625l0 -3.9375q-0.40625 -0.65625 -1.171875 -1.046875q-0.765625 -0.40625 -1.515625 -0.40625q-1.3125 0 -2.109375 0.953125q-0.78125 0.953125 -0.78125 2.484375q0 1.546875 0.796875 2.484375q0.8125 0.9375 2.09375 0.9375zm12.52121 1.125l0 -1.03125q-1.140625 1.25 -2.984375 1.25q-1.359375 0 -2.265625 -0.859375q-0.890625 -0.859375 -0.890625 -2.125q0 -1.296875 0.890625 -2.125q0.890625 -0.84375 2.265625 -0.84375q1.9375 0 2.984375 1.234375l0 -1.625q0 -0.90625 -0.640625 -1.390625q-0.640625 -0.5 -1.640625 -0.5q-1.578125 0 -2.75 1.25l-0.65625 -0.984375q1.4375 -1.484375 3.59375 -1.484375q1.671875 0 2.578125 0.8125q0.921875 0.796875 0.921875 2.234375l0 6.1875l-1.40625 0zm-2.484375 -0.78125q1.671875 0 2.484375 -1.125l0 -1.6875q-0.8125 -1.125 -2.484375 -1.125q-0.984375 0 -1.609375 0.546875q-0.609375 0.546875 -0.609375 1.421875q0 0.859375 0.609375 1.421875q0.625 0.546875 1.609375 0.546875zm17.566223 0.78125l0 -6.125q0 -1.859375 -1.671875 -1.859375q-0.703125 0 -1.375 0.421875q-0.65625 0.421875 -1.0 0.953125l0 6.609375l-1.40625 0l0 -6.125q0 -1.859375 -1.65625 -1.859375q-0.6875 0 -1.34375 0.4375q-0.65625 0.421875 -1.03125 0.96875l0 6.578125l-1.390625 0l0 -9.015625l1.390625 0l0 1.3125q0.3125 -0.546875 1.1875 -1.03125q0.890625 -0.5 1.71875 -0.5q1.046875 0 1.625 0.484375q0.59375 0.484375 0.8125 1.1875q0.453125 -0.71875 1.3125 -1.1875q0.859375 -0.484375 1.703125 -0.484375q2.515625 0 2.515625 2.71875l0 6.515625l-1.390625 0zm8.261749 0.21875q-2.03125 0 -3.3125 -1.3125q-1.28125 -1.328125 -1.28125 -3.421875q0 -2.0 1.265625 -3.359375q1.28125 -1.359375 3.171875 -1.359375q1.9375 0 3.125 1.34375q1.203125 1.34375 1.203125 3.484375l0 0.359375l-7.296875 0q0.078125 1.375 1.0 2.25q0.921875 0.859375 2.25 0.859375q1.640625 0 2.78125 -1.140625l0.671875 0.921875q-1.375 1.375 -3.578125 1.375zm2.796875 -5.296875q0 -1.25 -0.828125 -2.125q-0.8125 -0.875 -2.140625 -0.875q-1.25 0 -2.078125 0.875q-0.828125 0.875 -0.875 2.125l5.921875 0zm10.8940735 5.078125l-3.171875 -4.9375l-2.484375 0l0 4.9375l-1.546875 0l0 -12.4375l5.0 0q1.75 0 2.828125 1.046875q1.078125 1.03125 1.078125 2.703125q0 1.5625 -0.90625 2.53125q-0.90625 0.953125 -2.328125 1.078125l3.359375 5.078125l-1.828125 0zm-2.390625 -6.3125q1.125 0 1.796875 -0.65625q0.6875 -0.65625 0.6875 -1.71875q0 -1.0625 -0.6875 -1.71875q-0.671875 -0.65625 -1.796875 -0.65625l-3.265625 0l0 4.75l3.265625 0zm9.986145 6.53125q-2.03125 0 -3.3125 -1.3125q-1.28125 -1.328125 -1.28125 -3.421875q0 -2.0 1.265625 -3.359375q1.28125 -1.359375 3.171875 -1.359375q1.9375 0 3.125 1.34375q1.203125 1.34375 1.203125 3.484375l0 0.359375l-7.296875 0q0.078125 1.375 1.0 2.25q0.921875 0.859375 2.25 0.859375q1.640625 0 2.78125 -1.140625l0.671875 0.921875q-1.375 1.375 -3.578125 1.375zm2.796875 -5.296875q0 -1.25 -0.828125 -2.125q-0.8125 -0.875 -2.140625 -0.875q-1.25 0 -2.078125 0.875q-0.828125 0.875 -0.875 2.125l5.921875 0zm6.4878235 5.296875q-2.296875 0 -3.640625 -1.40625l0.734375 -1.015625q0.453125 0.53125 1.234375 0.90625q0.796875 0.375 1.734375 0.375q1.046875 0 1.578125 -0.4375q0.546875 -0.4375 0.546875 -1.109375q0 -0.59375 -0.59375 -0.9375q-0.578125 -0.34375 -2.1875 -0.71875q-1.359375 -0.28125 -2.078125 -0.875q-0.71875 -0.609375 -0.71875 -1.640625q0 -1.140625 0.90625 -1.859375q0.921875 -0.734375 2.453125 -0.734375q2.03125 0 3.34375 1.3125l-0.65625 0.96875q-0.40625 -0.484375 -1.109375 -0.8125q-0.703125 -0.328125 -1.578125 -0.328125q-0.9375 0 -1.46875 0.40625q-0.53125 0.40625 -0.53125 1.015625q0 0.53125 0.59375 0.859375q0.609375 0.3125 2.203125 0.640625q1.359375 0.328125 2.0625 0.96875q0.71875 0.640625 0.71875 1.703125q0 1.25 -0.96875 1.984375q-0.96875 0.734375 -2.578125 0.734375zm11.909546 -0.21875l0 -1.265625q-0.53125 0.59375 -1.375 1.046875q-0.828125 0.4375 -1.84375 0.4375q-2.859375 0 -2.859375 -2.875l0 -6.359375l1.390625 0l0 5.9375q0 1.0625 0.484375 1.5625q0.484375 0.484375 1.53125 0.484375q0.828125 0 1.546875 -0.40625q0.734375 -0.40625 1.125 -0.953125l0 -6.625l1.390625 0l0 9.015625l-1.390625 0zm4.201477 0l0 -12.4375l1.390625 0l0 12.4375l-1.390625 0zm6.4632874 0.21875q-2.0 0 -2.0 -2.109375l0 -5.890625l-1.484375 0l0 -1.234375l1.484375 0l0 -2.453125l1.40625 0l0 2.453125l1.828125 0l0 1.234375l-1.828125 0l0 5.59375q0 0.515625 0.21875 0.84375q0.234375 0.3125 0.703125 0.3125q0.578125 0 0.9375 -0.375l0.421875 1.046875q-0.578125 0.578125 -1.6875 0.578125zm2.3599243 -1.890625l0 -1.15625l7.015625 -3.40625l-7.015625 -3.40625l0 -1.1875l8.21875 4.09375l0 0.984375l-8.21875 4.078125z" fill-rule="nonzero"/><path fill="#cfe2f3" d="m408.47507 87.0l147.24411 0l0 35.55905l-147.24411 0z" fill-rule="evenodd"/><path stroke="#000000" stroke-width="1.0" stroke-linejoin="round" stroke-linecap="butt" d="m408.47507 87.0l147.24411 0l0 35.55905l-147.24411 0z" fill-rule="evenodd"/><path fill="#000000" d="m427.08292 104.69063l0 -0.703125l5.875 -2.921875l0 0.84375l-5.03125 2.4375l5.03125 2.421875l0 0.828125l-5.875 -2.90625zm10.431976 4.265625q-1.375 0 -2.171875 -1.125l0 3.421875l-1.0 0l0 -8.890625l1.0 0l0 0.953125q0.34375 -0.484375 0.90625 -0.796875q0.578125 -0.3125 1.265625 -0.3125q1.296875 0 2.078125 0.90625q0.78125 0.90625 0.78125 2.46875q0 1.546875 -0.78125 2.46875q-0.765625 0.90625 -2.078125 0.90625zm-0.25 -0.890625q0.921875 0 1.484375 -0.671875q0.578125 -0.6875 0.578125 -1.8125q0 -1.109375 -0.5625 -1.796875q-0.5625 -0.6875 -1.5 -0.6875q-0.609375 0 -1.140625 0.296875q-0.515625 0.296875 -0.78125 0.734375l0 2.90625q0.265625 0.421875 0.78125 0.734375q0.53125 0.296875 1.140625 0.296875zm4.701782 0.734375l0 -8.890625l1.0 0l0 8.890625l-1.0 0zm7.03006 0l0 -0.734375q-0.8125 0.890625 -2.140625 0.890625q-0.96875 0 -1.609375 -0.609375q-0.640625 -0.609375 -0.640625 -1.515625q0 -0.9375 0.625 -1.53125q0.640625 -0.59375 1.625 -0.59375q1.390625 0 2.140625 0.875l0 -1.15625q0 -0.65625 -0.46875 -1.0q-0.453125 -0.359375 -1.15625 -0.359375q-1.140625 0 -1.984375 0.890625l-0.46875 -0.6875q1.03125 -1.0625 2.578125 -1.0625q1.1875 0 1.84375 0.578125q0.65625 0.5625 0.65625 1.59375l0 4.421875l-1.0 0zm-1.78125 -0.5625q1.1875 0 1.78125 -0.796875l0 -1.21875q-0.59375 -0.796875 -1.78125 -0.796875q-0.703125 0 -1.140625 0.40625q-0.4375 0.390625 -0.4375 1.015625q0 0.609375 0.4375 1.0q0.4375 0.390625 1.140625 0.390625zm4.5707703 2.171875q0.21875 0.109375 0.546875 0.109375q0.328125 0 0.546875 -0.140625q0.234375 -0.140625 0.421875 -0.53125l0.421875 -0.984375l-2.6875 -6.5l1.078125 0l2.140625 5.28125l2.125 -5.28125l1.09375 0l-3.21875 7.75q-0.53125 1.265625 -1.890625 1.296875q-0.390625 0 -0.734375 -0.09375l0.15625 -0.90625zm10.983887 -1.4375q-1.953125 0 -3.265625 -1.3125q-1.296875 -1.3125 -1.296875 -3.296875q0 -2.015625 1.3125 -3.296875q1.3125 -1.296875 3.25 -1.296875q2.09375 0 3.453125 1.65625l-0.875 0.546875q-0.4375 -0.546875 -1.109375 -0.875q-0.671875 -0.34375 -1.46875 -0.34375q-1.484375 0 -2.453125 1.03125q-0.96875 1.015625 -0.96875 2.578125q0 1.578125 0.96875 2.609375q0.984375 1.015625 2.453125 1.015625q0.671875 0 1.3125 -0.25q0.640625 -0.265625 1.078125 -0.703125l0 -1.8125l-3.0625 0l0 -1.0l4.171875 0l0 3.21875q-1.390625 1.53125 -3.5 1.53125zm9.284149 -0.171875l0 -0.734375q-0.8125 0.890625 -2.140625 0.890625q-0.96875 0 -1.609375 -0.609375q-0.640625 -0.609375 -0.640625 -1.515625q0 -0.9375 0.625 -1.53125q0.640625 -0.59375 1.625 -0.59375q1.390625 0 2.140625 0.875l0 -1.15625q0 -0.65625 -0.46875 -1.0q-0.453125 -0.359375 -1.15625 -0.359375q-1.140625 0 -1.984375 0.890625l-0.46875 -0.6875q1.03125 -1.0625 2.578125 -1.0625q1.1875 0 1.84375 0.578125q0.65625 0.5625 0.65625 1.59375l0 4.421875l-1.0 0zm-1.78125 -0.5625q1.1875 0 1.78125 -0.796875l0 -1.21875q-0.59375 -0.796875 -1.78125 -0.796875q-0.703125 0 -1.140625 0.40625q-0.4375 0.390625 -0.4375 1.015625q0 0.609375 0.4375 1.0q0.4375 0.390625 1.140625 0.390625zm12.53952 0.5625l0 -4.375q0 -1.328125 -1.1875 -1.328125q-0.5 0 -0.984375 0.296875q-0.46875 0.296875 -0.71875 0.6875l0 4.71875l-1.0 0l0 -4.375q0 -1.328125 -1.1875 -1.328125q-0.484375 0 -0.953125 0.3125q-0.46875 0.296875 -0.734375 0.6875l0 4.703125l-1.0 0l0 -6.4375l1.0 0l0 0.9375q0.21875 -0.390625 0.84375 -0.734375q0.640625 -0.359375 1.234375 -0.359375q0.75 0 1.171875 0.34375q0.421875 0.34375 0.5625 0.859375q0.328125 -0.53125 0.9375 -0.859375q0.625 -0.34375 1.21875 -0.34375q1.796875 0 1.796875 1.9375l0 4.65625l-1.0 0zm5.909729 0.15625q-1.453125 0 -2.375 -0.9375q-0.90625 -0.953125 -0.90625 -2.4375q0 -1.4375 0.90625 -2.40625q0.90625 -0.96875 2.265625 -0.96875q1.390625 0 2.234375 0.96875q0.859375 0.953125 0.859375 2.484375l0 0.25l-5.21875 0q0.0625 0.984375 0.71875 1.609375q0.65625 0.609375 1.609375 0.609375q1.171875 0 1.984375 -0.8125l0.484375 0.65625q-0.984375 0.984375 -2.5625 0.984375zm2.0 -3.78125q0 -0.890625 -0.59375 -1.515625q-0.578125 -0.625 -1.53125 -0.625q-0.890625 0 -1.484375 0.625q-0.59375 0.625 -0.625 1.515625l4.234375 0zm2.6443176 3.625l0 -8.890625l3.953125 0q1.125 0 1.796875 0.625q0.6875 0.609375 0.6875 1.640625q0 0.78125 -0.4375 1.328125q-0.421875 0.546875 -1.109375 0.71875q0.703125 0.09375 1.203125 0.734375q0.515625 0.640625 0.515625 1.4375q0 1.09375 -0.6875 1.75q-0.671875 0.65625 -1.875 0.65625l-4.046875 0zm3.765625 -5.03125q0.765625 0 1.140625 -0.40625q0.390625 -0.40625 0.390625 -1.03125q0 -0.59375 -0.390625 -1.015625q-0.375 -0.421875 -1.140625 -0.421875l-2.671875 0l0 2.875l2.671875 0zm0.046875 4.046875q0.796875 0 1.21875 -0.40625q0.4375 -0.40625 0.4375 -1.125q0 -0.6875 -0.453125 -1.109375q-0.453125 -0.421875 -1.203125 -0.421875l-2.71875 0l0 3.0625l2.71875 0zm8.867737 0.984375l0 -0.90625q-0.375 0.421875 -0.984375 0.75q-0.59375 0.3125 -1.3125 0.3125q-2.046875 0 -2.046875 -2.046875l0 -4.546875l1.0 0l0 4.234375q0 0.765625 0.34375 1.125q0.34375 0.34375 1.09375 0.34375q0.59375 0 1.109375 -0.28125q0.515625 -0.296875 0.796875 -0.6875l0 -4.734375l1.0 0l0 6.4375l-1.0 0zm4.6250305 0.15625q-1.421875 0 -1.421875 -1.5l0 -4.21875l-1.0625 0l0 -0.875l1.0625 0l0 -1.765625l1.0 0l0 1.765625l1.296875 0l0 0.875l-1.296875 0l0 4.0q0 0.359375 0.15625 0.59375q0.15625 0.234375 0.5 0.234375q0.40625 0 0.671875 -0.265625l0.296875 0.75q-0.421875 0.40625 -1.203125 0.40625zm3.918457 0q-1.421875 0 -1.421875 -1.5l0 -4.21875l-1.0625 0l0 -0.875l1.0625 0l0 -1.765625l1.0 0l0 1.765625l1.296875 0l0 0.875l-1.296875 0l0 4.0q0 0.359375 0.15625 0.59375q0.15625 0.234375 0.5 0.234375q0.40625 0 0.671875 -0.265625l0.296875 0.75q-0.421875 0.40625 -1.203125 0.40625zm5.105957 0q-1.40625 0 -2.296875 -0.953125q-0.890625 -0.953125 -0.890625 -2.421875q0 -1.5 0.890625 -2.4375q0.890625 -0.9375 2.296875 -0.9375q1.40625 0 2.296875 0.9375q0.890625 0.9375 0.890625 2.4375q0 1.46875 -0.890625 2.421875q-0.890625 0.953125 -2.296875 0.953125zm0 -0.890625q0.9375 0 1.53125 -0.6875q0.59375 -0.703125 0.59375 -1.796875q0 -1.09375 -0.59375 -1.78125q-0.59375 -0.703125 -1.53125 -0.703125q-0.9375 0 -1.546875 0.703125q-0.59375 0.6875 -0.59375 1.78125q0 1.09375 0.59375 1.796875q0.59375 0.6875 1.546875 0.6875zm9.154907 0.734375l0 -4.21875q0 -0.84375 -0.390625 -1.15625q-0.390625 -0.328125 -1.046875 -0.328125q-0.5625 0 -1.109375 0.296875q-0.53125 0.296875 -0.796875 0.703125l0 4.703125l-1.0 0l0 -6.4375l1.0 0l0 0.9375q0.40625 -0.484375 1.015625 -0.78125q0.609375 -0.3125 1.28125 -0.3125q2.046875 0 2.046875 2.078125l0 4.515625l-1.0 0zm2.390625 -1.203125l0 -0.828125l5.0 -2.421875l-5.0 -2.4375l0 -0.84375l5.875 2.921875l0 0.703125l-5.875 2.90625z" fill-rule="nonzero"/><path fill="#cfe2f3" d="m565.31494 86.99978l153.82678 0l0 76.53544l-153.82678 0z" fill-rule="evenodd"/><path stroke="#000000" stroke-width="1.0" stroke-linejoin="round" stroke-linecap="butt" d="m565.31494 86.99978l153.82678 0l0 76.53544l-153.82678 0z" fill-rule="evenodd"/><path fill="#cfe2f3" d="m568.6063 101.03281l147.24408 0l0 35.55905l-147.24408 0z" fill-rule="evenodd"/><path fill="#000000" d="m588.9005 118.723434l0 -0.703125l5.875 -2.921875l0 0.84375l-5.03125 2.4375l5.03125 2.421875l0 0.828125l-5.875 -2.90625zm9.838196 6.71875q-0.8125 0 -1.421875 -0.203125q-0.59375 -0.1875 -1.171875 -0.75l0.515625 -0.75q0.390625 0.484375 0.890625 0.671875q0.5 0.203125 1.1875 0.203125q1.0 0 1.53125 -0.515625q0.546875 -0.5 0.546875 -1.40625l0 -0.921875q-0.359375 0.484375 -0.921875 0.8125q-0.5625 0.328125 -1.25 0.328125q-1.296875 0 -2.078125 -0.921875q-0.78125 -0.921875 -0.78125 -2.40625q0 -1.546875 0.796875 -2.4375q0.796875 -0.90625 2.0625 -0.90625q1.34375 0 2.171875 1.125l0 -0.96875l1.0 0l0 6.25q0 1.359375 -0.8125 2.078125q-0.796875 0.71875 -2.265625 0.71875zm0.15625 -3.40625q0.546875 0 1.078125 -0.296875q0.546875 -0.296875 0.84375 -0.765625l0 -2.8125q-0.296875 -0.453125 -0.84375 -0.734375q-0.546875 -0.296875 -1.078125 -0.296875q-0.953125 0 -1.515625 0.6875q-0.546875 0.671875 -0.546875 1.765625q0 1.109375 0.5625 1.78125q0.578125 0.671875 1.5 0.671875zm8.947205 0.796875l0 -0.734375q-0.8125 0.890625 -2.140625 0.890625q-0.96875 0 -1.609375 -0.609375q-0.640625 -0.609375 -0.640625 -1.515625q0 -0.9375 0.625 -1.53125q0.640625 -0.59375 1.625 -0.59375q1.390625 0 2.140625 0.875l0 -1.15625q0 -0.65625 -0.46875 -1.0q-0.453125 -0.359375 -1.15625 -0.359375q-1.140625 0 -1.984375 0.890625l-0.46875 -0.6875q1.03125 -1.0625 2.578125 -1.0625q1.1875 0 1.84375 0.578125q0.65625 0.5625 0.65625 1.59375l0 4.421875l-1.0 0zm-1.78125 -0.5625q1.1875 0 1.78125 -0.796875l0 -1.21875q-0.59375 -0.796875 -1.78125 -0.796875q-0.703125 0 -1.140625 0.40625q-0.4375 0.390625 -0.4375 1.015625q0 0.609375 0.4375 1.0q0.4375 0.390625 1.140625 0.390625zm12.53949 0.5625l0 -4.375q0 -1.328125 -1.1875 -1.328125q-0.5 0 -0.984375 0.296875q-0.46875 0.296875 -0.71875 0.6875l0 4.71875l-1.0 0l0 -4.375q0 -1.328125 -1.1875 -1.328125q-0.484375 0 -0.953125 0.3125q-0.46875 0.296875 -0.734375 0.6875l0 4.703125l-1.0 0l0 -6.4375l1.0 0l0 0.9375q0.21875 -0.390625 0.84375 -0.734375q0.640625 -0.359375 1.234375 -0.359375q0.75 0 1.171875 0.34375q0.421875 0.34375 0.5625 0.859375q0.328125 -0.53125 0.9375 -0.859375q0.625 -0.34375 1.21875 -0.34375q1.796875 0 1.796875 1.9375l0 4.65625l-1.0 0zm5.909729 0.15625q-1.453125 0 -2.375 -0.9375q-0.90625 -0.953125 -0.90625 -2.4375q0 -1.4375 0.90625 -2.40625q0.90625 -0.96875 2.265625 -0.96875q1.390625 0 2.234375 0.96875q0.859375 0.953125 0.859375 2.484375l0 0.25l-5.21875 0q0.0625 0.984375 0.71875 1.609375q0.65625 0.609375 1.609375 0.609375q1.171875 0 1.984375 -0.8125l0.484375 0.65625q-0.984375 0.984375 -2.5625 0.984375zm2.0 -3.78125q0 -0.890625 -0.59375 -1.515625q-0.578125 -0.625 -1.53125 -0.625q-0.890625 0 -1.484375 0.625q-0.59375 0.625 -0.625 1.515625l4.234375 0zm2.6443481 3.625l0 -8.890625l3.5625 0q1.265625 0 2.015625 0.765625q0.765625 0.75 0.765625 1.921875q0 1.171875 -0.78125 1.921875q-0.765625 0.75 -2.0 0.75l-2.46875 0l0 3.53125l-1.09375 0zm3.4375 -4.515625q0.796875 0 1.28125 -0.46875q0.484375 -0.46875 0.484375 -1.21875q0 -0.765625 -0.484375 -1.234375q-0.484375 -0.46875 -1.28125 -0.46875l-2.34375 0l0 3.390625l2.34375 0zm4.3391724 4.515625l0 -8.890625l1.0 0l0 8.890625l-1.0 0zm7.0300903 0l0 -0.734375q-0.8125 0.890625 -2.140625 0.890625q-0.96875 0 -1.609375 -0.609375q-0.640625 -0.609375 -0.640625 -1.515625q0 -0.9375 0.625 -1.53125q0.640625 -0.59375 1.625 -0.59375q1.390625 0 2.140625 0.875l0 -1.15625q0 -0.65625 -0.46875 -1.0q-0.453125 -0.359375 -1.15625 -0.359375q-1.140625 0 -1.984375 0.890625l-0.46875 -0.6875q1.03125 -1.0625 2.578125 -1.0625q1.1875 0 1.84375 0.578125q0.65625 0.5625 0.65625 1.59375l0 4.421875l-1.0 0zm-1.78125 -0.5625q1.1875 0 1.78125 -0.796875l0 -1.21875q-0.59375 -0.796875 -1.78125 -0.796875q-0.703125 0 -1.140625 0.40625q-0.4375 0.390625 -0.4375 1.015625q0 0.609375 0.4375 1.0q0.4375 0.390625 1.140625 0.390625zm4.5707397 2.171875q0.21875 0.109375 0.546875 0.109375q0.328125 0 0.546875 -0.140625q0.234375 -0.140625 0.421875 -0.53125l0.421875 -0.984375l-2.6875 -6.5l1.078125 0l2.140625 5.28125l2.125 -5.28125l1.09375 0l-3.21875 7.75q-0.53125 1.265625 -1.890625 1.296875q-0.390625 0 -0.734375 -0.09375l0.15625 -0.90625zm9.640137 -1.453125q-1.453125 0 -2.375 -0.9375q-0.90625 -0.953125 -0.90625 -2.4375q0 -1.4375 0.90625 -2.40625q0.90625 -0.96875 2.265625 -0.96875q1.390625 0 2.234375 0.96875q0.859375 0.953125 0.859375 2.484375l0 0.25l-5.21875 0q0.0625 0.984375 0.71875 1.609375q0.65625 0.609375 1.609375 0.609375q1.171875 0 1.984375 -0.8125l0.484375 0.65625q-0.984375 0.984375 -2.5625 0.984375zm2.0 -3.78125q0 -0.890625 -0.59375 -1.515625q-0.578125 -0.625 -1.53125 -0.625q-0.890625 0 -1.484375 0.625q-0.59375 0.625 -0.625 1.515625l4.234375 0zm2.5974731 3.625l0 -6.4375l1.0 0l0 1.046875q0.890625 -1.1875 2.140625 -1.1875l0 1.03125l-0.390625 -0.03125q-0.453125 0 -1.0 0.328125q-0.546875 0.3125 -0.75 0.6875l0 4.5625l-1.0 0zm5.992676 0l0 -7.90625l-2.8125 0l0 -0.984375l6.75 0l0 0.984375l-2.828125 0l0 7.90625l-1.109375 0zm8.572998 0l0 -0.90625q-0.375 0.421875 -0.984375 0.75q-0.59375 0.3125 -1.3125 0.3125q-2.046875 0 -2.046875 -2.046875l0 -4.546875l1.0 0l0 4.234375q0 0.765625 0.34375 1.125q0.34375 0.34375 1.09375 0.34375q0.59375 0 1.109375 -0.28125q0.515625 -0.296875 0.796875 -0.6875l0 -4.734375l1.0 0l0 6.4375l-1.0 0zm3.000061 0l0 -6.4375l1.0 0l0 1.046875q0.890625 -1.1875 2.140625 -1.1875l0 1.03125l-0.390625 -0.03125q-0.453125 0 -1.0 0.328125q-0.546875 0.3125 -0.75 0.6875l0 4.5625l-1.0 0zm8.742004 0l0 -4.21875q0 -0.84375 -0.390625 -1.15625q-0.390625 -0.328125 -1.046875 -0.328125q-0.5625 0 -1.109375 0.296875q-0.53125 0.296875 -0.796875 0.703125l0 4.703125l-1.0 0l0 -6.4375l1.0 0l0 0.9375q0.40625 -0.484375 1.015625 -0.78125q0.609375 -0.3125 1.28125 -0.3125q2.046875 0 2.046875 2.078125l0 4.515625l-1.0 0zm2.390625 -1.203125l0 -0.828125l5.0 -2.421875l-5.0 -2.4375l0 -0.84375l5.875 2.921875l0 0.703125l-5.875 2.90625z" fill-rule="nonzero"/><path fill="#cfe2f3" d="m406.8294 128.12335l147.24408 0l0 35.559067l-147.24408 0z" fill-rule="evenodd"/><path stroke="#000000" stroke-width="1.0" stroke-linejoin="round" stroke-linecap="butt" d="m406.8294 128.12335l147.24408 0l0 35.559067l-147.24408 0z" fill-rule="evenodd"/><path fill="#000000" d="m431.5482 145.81398l0 -0.703125l5.875 -2.921875l0 0.84375l-5.03125 2.4375l5.03125 2.421875l0 0.828125l-5.875 -2.90625zm7.306946 4.109375l0 -8.890625l3.5625 0q1.265625 0 2.015625 0.765625q0.765625 0.75 0.765625 1.921875q0 1.171875 -0.78125 1.921875q-0.765625 0.75 -2.0 0.75l-2.46875 0l0 3.53125l-1.09375 0zm3.4375 -4.515625q0.796875 0 1.28125 -0.46875q0.484375 -0.46875 0.484375 -1.21875q0 -0.765625 -0.484375 -1.234375q-0.484375 -0.46875 -1.28125 -0.46875l-2.34375 0l0 3.390625l2.34375 0zm4.339203 4.515625l0 -8.890625l1.0 0l0 8.890625l-1.0 0zm7.03006 0l0 -0.734375q-0.8125 0.890625 -2.140625 0.890625q-0.96875 0 -1.609375 -0.609375q-0.640625 -0.609375 -0.640625 -1.515625q0 -0.9375 0.625 -1.53125q0.640625 -0.59375 1.625 -0.59375q1.390625 0 2.140625 0.875l0 -1.15625q0 -0.65625 -0.46875 -1.0q-0.453125 -0.359375 -1.15625 -0.359375q-1.140625 0 -1.984375 0.890625l-0.46875 -0.6875q1.03125 -1.0625 2.578125 -1.0625q1.1875 0 1.84375 0.578125q0.65625 0.5625 0.65625 1.59375l0 4.421875l-1.0 0zm-1.78125 -0.5625q1.1875 0 1.78125 -0.796875l0 -1.21875q-0.59375 -0.796875 -1.78125 -0.796875q-0.703125 0 -1.140625 0.40625q-0.4375 0.390625 -0.4375 1.015625q0 0.609375 0.4375 1.0q0.4375 0.390625 1.140625 0.390625zm4.5707703 2.171875q0.21875 0.109375 0.546875 0.109375q0.328125 0 0.546875 -0.140625q0.234375 -0.140625 0.421875 -0.53125l0.421875 -0.984375l-2.6875 -6.5l1.078125 0l2.140625 5.28125l2.125 -5.28125l1.09375 0l-3.21875 7.75q-0.53125 1.265625 -1.890625 1.296875q-0.390625 0 -0.734375 -0.09375l0.15625 -0.90625zm9.640137 -1.453125q-1.453125 0 -2.375 -0.9375q-0.90625 -0.953125 -0.90625 -2.4375q0 -1.4375 0.90625 -2.40625q0.90625 -0.96875 2.265625 -0.96875q1.390625 0 2.234375 0.96875q0.859375 0.953125 0.859375 2.484375l0 0.25l-5.21875 0q0.0625 0.984375 0.71875 1.609375q0.65625 0.609375 1.609375 0.609375q1.171875 0 1.984375 -0.8125l0.484375 0.65625q-0.984375 0.984375 -2.5625 0.984375zm2.0 -3.78125q0 -0.890625 -0.59375 -1.515625q-0.578125 -0.625 -1.53125 -0.625q-0.890625 0 -1.484375 0.625q-0.59375 0.625 -0.625 1.515625l4.234375 0zm2.5974731 3.625l0 -6.4375l1.0 0l0 1.046875q0.890625 -1.1875 2.140625 -1.1875l0 1.03125l-0.390625 -0.03125q-0.453125 0 -1.0 0.328125q-0.546875 0.3125 -0.75 0.6875l0 4.5625l-1.0 0zm6.1170044 0l-2.671875 -6.4375l1.078125 0l2.140625 5.28125l2.125 -5.28125l1.09375 0l-2.671875 6.4375l-1.09375 0zm6.8432617 0.15625q-1.625 0 -2.59375 -1.015625l0.515625 -0.71875q0.328125 0.375 0.890625 0.65625q0.5625 0.265625 1.234375 0.265625q0.75 0 1.125 -0.3125q0.390625 -0.3125 0.390625 -0.796875q0 -0.421875 -0.421875 -0.65625q-0.40625 -0.25 -1.5625 -0.53125q-0.96875 -0.1875 -1.484375 -0.625q-0.515625 -0.4375 -0.515625 -1.171875q0 -0.8125 0.65625 -1.328125q0.65625 -0.515625 1.75 -0.515625q1.453125 0 2.375 0.921875l-0.453125 0.703125q-0.296875 -0.34375 -0.796875 -0.578125q-0.5 -0.234375 -1.125 -0.234375q-0.671875 0 -1.046875 0.296875q-0.375 0.28125 -0.375 0.71875q0 0.375 0.421875 0.609375q0.421875 0.21875 1.5625 0.46875q0.984375 0.21875 1.484375 0.6875q0.515625 0.453125 0.515625 1.21875q0 0.890625 -0.703125 1.421875q-0.6875 0.515625 -1.84375 0.515625zm4.213196 -0.15625l0 -8.890625l3.5625 0q1.265625 0 2.015625 0.765625q0.765625 0.75 0.765625 1.921875q0 1.171875 -0.78125 1.921875q-0.765625 0.75 -2.0 0.75l-2.46875 0l0 3.53125l-1.09375 0zm3.4375 -4.515625q0.796875 0 1.28125 -0.46875q0.484375 -0.46875 0.484375 -1.21875q0 -0.765625 -0.484375 -1.234375q-0.484375 -0.46875 -1.28125 -0.46875l-2.34375 0l0 3.390625l2.34375 0zm4.339203 4.515625l0 -8.890625l1.0 0l0 8.890625l-1.0 0zm7.03006 0l0 -0.734375q-0.8125 0.890625 -2.140625 0.890625q-0.96875 0 -1.609375 -0.609375q-0.640625 -0.609375 -0.640625 -1.515625q0 -0.9375 0.625 -1.53125q0.640625 -0.59375 1.625 -0.59375q1.390625 0 2.140625 0.875l0 -1.15625q0 -0.65625 -0.46875 -1.0q-0.453125 -0.359375 -1.15625 -0.359375q-1.140625 0 -1.984375 0.890625l-0.46875 -0.6875q1.03125 -1.0625 2.578125 -1.0625q1.1875 0 1.84375 0.578125q0.65625 0.5625 0.65625 1.59375l0 4.421875l-1.0 0zm-1.78125 -0.5625q1.1875 0 1.78125 -0.796875l0 -1.21875q-0.59375 -0.796875 -1.78125 -0.796875q-0.703125 0 -1.140625 0.40625q-0.4375 0.390625 -0.4375 1.015625q0 0.609375 0.4375 1.0q0.4375 0.390625 1.140625 0.390625zm4.5707703 2.171875q0.21875 0.109375 0.546875 0.109375q0.328125 0 0.546875 -0.140625q0.234375 -0.140625 0.421875 -0.53125l0.421875 -0.984375l-2.6875 -6.5l1.078125 0l2.140625 5.28125l2.125 -5.28125l1.09375 0l-3.21875 7.75q-0.53125 1.265625 -1.890625 1.296875q-0.390625 0 -0.734375 -0.09375l0.15625 -0.90625zm9.640106 -1.453125q-1.453125 0 -2.375 -0.9375q-0.9062195 -0.953125 -0.9062195 -2.4375q0 -1.4375 0.9062195 -2.40625q0.90625 -0.96875 2.265625 -0.96875q1.390625 0 2.234375 0.96875q0.859375 0.953125 0.859375 2.484375l0 0.25l-5.21875 0q0.0625 0.984375 0.71875 1.609375q0.65625 0.609375 1.609375 0.609375q1.171875 0 1.984375 -0.8125l0.484375 0.65625q-0.984375 0.984375 -2.5625 0.984375zm2.0 -3.78125q0 -0.890625 -0.59375 -1.515625q-0.578125 -0.625 -1.53125 -0.625q-0.890625 0 -1.484375 0.625q-0.59375 0.625 -0.625 1.515625l4.234375 0zm2.5974731 3.625l0 -6.4375l1.0 0l0 1.046875q0.890625 -1.1875 2.140625 -1.1875l0 1.03125l-0.390625 -0.03125q-0.453125 0 -1.0 0.328125q-0.546875 0.3125 -0.75 0.6875l0 4.5625l-1.0 0zm3.7888794 -1.203125l0 -0.828125l5.0 -2.421875l-5.0 -2.4375l0 -0.84375l5.875 2.921875l0 0.703125l-5.875 2.90625z" fill-rule="nonzero"/></g></svg>