<?xml version="1.0" encoding="UTF-8" standalone="no"?>
<!-- Created with Inkscape (http://www.inkscape.org/) -->

<svg
   xmlns:dc="http://purl.org/dc/elements/1.1/"
   xmlns:cc="http://creativecommons.org/ns#"
   xmlns:rdf="http://www.w3.org/1999/02/22-rdf-syntax-ns#"
   xmlns:svg="http://www.w3.org/2000/svg"
   xmlns="http://www.w3.org/2000/svg"
   xmlns:sodipodi="http://sodipodi.sourceforge.net/DTD/sodipodi-0.dtd"
   xmlns:inkscape="http://www.inkscape.org/namespaces/inkscape"
   width="256"
   height="256"
   viewBox="0 0 67.733332 67.733335"
   version="1.1"
   id="svg8"
   inkscape:version="0.91 r13725"
   sodipodi:docname="Tic-Tac-Text Icon.svg">
  <defs
     id="defs2" />
  <sodipodi:namedview
     id="base"
     pagecolor="#ffffff"
     bordercolor="#666666"
     borderopacity="1.0"
     inkscape:pageopacity="0.0"
     inkscape:pageshadow="2"
     inkscape:zoom="1.8334972"
     inkscape:cx="173.00383"
     inkscape:cy="109.78751"
     inkscape:document-units="mm"
     inkscape:current-layer="layer1"
     showgrid="false"
     units="px"
     inkscape:pagecheckerboard="true"
     showborder="true"
     inkscape:snap-text-baseline="false"
     inkscape:window-width="1301"
     inkscape:window-height="744"
     inkscape:window-x="65"
     inkscape:window-y="24"
     inkscape:window-maximized="1" />
  <metadata
     id="metadata5">
    <rdf:RDF>
      <cc:Work
         rdf:about="">
        <dc:format>image/svg+xml</dc:format>
        <dc:type
           rdf:resource="http://purl.org/dc/dcmitype/StillImage" />
        <dc:title></dc:title>
        <cc:license
           rdf:resource="http://creativecommons.org/publicdomain/zero/1.0/" />
        <dc:creator>
          <cc:Agent>
            <dc:title>OSA413</dc:title>
          </cc:Agent>
        </dc:creator>
      </cc:Work>
      <cc:License
         rdf:about="http://creativecommons.org/publicdomain/zero/1.0/">
        <cc:permits
           rdf:resource="http://creativecommons.org/ns#Reproduction" />
        <cc:permits
           rdf:resource="http://creativecommons.org/ns#Distribution" />
        <cc:permits
           rdf:resource="http://creativecommons.org/ns#DerivativeWorks" />
      </cc:License>
    </rdf:RDF>
  </metadata>
  <g
     inkscape:label="Layer 1"
     inkscape:groupmode="layer"
     id="layer1"
     transform="translate(0,-229.26665)">
    <path
       style="opacity:1;fill:#000000;fill-opacity:1;stroke:none;stroke-width:5;stroke-linecap:square;stroke-linejoin:miter;stroke-miterlimit:2.5;stroke-dasharray:none;stroke-opacity:0.95067264;paint-order:stroke fill markers"
       d="m 11.73729,229.26665 44.258749,0 c 6.502459,0 11.737291,5.23483 11.737291,11.73729 l 0,44.25875 c 0,6.50246 -5.234832,11.73729 -11.737291,11.73729 l -44.258749,0 C 5.2348315,296.99998 0,291.76515 0,285.26269 l 0,-44.25875 c 0,-6.50246 5.2348315,-11.73729 11.73729,-11.73729 z"
       id="rect1366" />
    <path
       style="opacity:1;fill:#ffffff;fill-opacity:1;stroke:none;stroke-width:4.68750048;stroke-linecap:square;stroke-linejoin:miter;stroke-miterlimit:2.5;stroke-dasharray:none;stroke-opacity:0.95067264;paint-order:stroke fill markers"
       d="m 13.120377,231.38332 41.492579,0 c 6.096056,0 11.003711,4.90765 11.003711,11.00371 l 0,41.49258 c 0,6.09605 -4.907655,11.00371 -11.003711,11.00371 l -41.492579,0 c -6.0960555,0 -11.0037104,-4.90766 -11.0037104,-11.00371 l 0,-41.49258 c 0,-6.09606 4.9076549,-11.00371 11.0037104,-11.00371 z"
       id="rect1408" />
    <rect
       style="opacity:1;fill:#000000;fill-opacity:1;stroke:none;stroke-width:2.61776757;stroke-linecap:square;stroke-linejoin:miter;stroke-miterlimit:2.5;stroke-dasharray:none;stroke-opacity:0.95067264;paint-order:stroke fill markers"
       id="rect1372"
       width="2.1166666"
       height="67.73333"
       x="43.920834"
       y="229.26665"
       ry="0" />
    <rect
       ry="0"
       y="229.26665"
       x="21.960417"
       height="67.73333"
       width="2.1166666"
       id="rect1383"
       style="opacity:1;fill:#000000;fill-opacity:1;stroke:none;stroke-width:2.61776757;stroke-linecap:square;stroke-linejoin:miter;stroke-miterlimit:2.5;stroke-dasharray:none;stroke-opacity:0.95067264;paint-order:stroke fill markers" />
    <rect
       style="opacity:1;fill:#000000;fill-opacity:1;stroke:none;stroke-width:4.28153515;stroke-linecap:square;stroke-linejoin:miter;stroke-miterlimit:2.5;stroke-dasharray:none;stroke-opacity:0.95067264;paint-order:stroke fill markers"
       id="rect1385"
       width="67.73333"
       height="2.1166666"
       x="0"
       y="272.92291" />
    <rect
       style="opacity:1;fill:#000000;fill-opacity:1;stroke:none;stroke-width:5.48634148;stroke-linecap:square;stroke-linejoin:miter;stroke-miterlimit:2.5;stroke-dasharray:none;stroke-opacity:0.95067264;paint-order:stroke fill markers"
       id="rect1387"
       width="67.73333"
       height="2.1166666"
       x="0"
       y="250.96248" />
    <path
       style="opacity:1;fill:#000000;fill-opacity:1;stroke:none;stroke-width:5.04201698;stroke-linecap:square;stroke-linejoin:miter;stroke-miterlimit:2.5;stroke-dasharray:none;stroke-opacity:0.95067264;paint-order:stroke fill markers"
       d="m 33.998958,255.06352 a 7.9374999,7.9374999 0 0 0 -7.9375,7.9375 7.9374999,7.9374999 0 0 0 7.9375,7.9375 7.9374999,7.9374999 0 0 0 7.937499,-7.9375 7.9374999,7.9374999 0 0 0 -7.937499,-7.9375 z m 0,2.11666 a 5.8208333,5.8208333 0 0 1 5.820833,5.82084 5.8208333,5.8208333 0 0 1 -5.820833,5.82083 5.8208333,5.8208333 0 0 1 -5.820834,-5.82083 5.8208333,5.8208333 0 0 1 5.820834,-5.82084 z"
       id="path1395"
       inkscape:connector-curvature="0" />
    <path
       id="path1406"
       d="m 55.959375,233.10311 a 7.9374999,7.9374999 0 0 0 -7.9375,7.9375 7.9374999,7.9374999 0 0 0 7.9375,7.9375 7.9374999,7.9374999 0 0 0 7.9375,-7.9375 7.9374999,7.9374999 0 0 0 -7.9375,-7.9375 z m 0,2.11667 a 5.8208333,5.8208333 0 0 1 5.820834,5.82083 5.8208333,5.8208333 0 0 1 -5.820834,5.82083 5.8208333,5.8208333 0 0 1 -5.820833,-5.82083 5.8208333,5.8208333 0 0 1 5.820833,-5.82083 z"
       style="opacity:1;fill:#000000;fill-opacity:1;stroke:none;stroke-width:5.04201698;stroke-linecap:square;stroke-linejoin:miter;stroke-miterlimit:2.5;stroke-dasharray:none;stroke-opacity:0.95067264;paint-order:stroke fill markers"
       inkscape:connector-curvature="0" />
    <g
       id="g1416"
       transform="matrix(1.2478355,0,0,1.2478354,-8.4261471,-59.738402)">
      <rect
         transform="rotate(-45)"
         ry="0"
         y="186.54485"
         x="-147.45889"
         height="15.875"
         width="2.1166666"
         id="rect1410"
         style="opacity:1;fill:#000000;fill-opacity:1;stroke:none;stroke-width:3.78641248;stroke-linecap:square;stroke-linejoin:miter;stroke-miterlimit:2.5;stroke-dasharray:none;stroke-opacity:0.95067264;paint-order:stroke fill markers" />
      <rect
         style="opacity:1;fill:#000000;fill-opacity:1;stroke:none;stroke-width:3.78641248;stroke-linecap:square;stroke-linejoin:miter;stroke-miterlimit:2.5;stroke-dasharray:none;stroke-opacity:0.95067264;paint-order:stroke fill markers"
         id="rect1412"
         width="2.1166666"
         height="15.875"
         x="193.42401"
         y="138.46306"
         ry="0"
         transform="rotate(45)" />
    </g>
    <g
       transform="matrix(1.2478355,0,0,1.2478354,-30.386564,-37.777985)"
       id="g1433">
      <rect
         style="opacity:1;fill:#000000;fill-opacity:1;stroke:none;stroke-width:3.78641248;stroke-linecap:square;stroke-linejoin:miter;stroke-miterlimit:2.5;stroke-dasharray:none;stroke-opacity:0.95067264;paint-order:stroke fill markers"
         id="rect1429"
         width="2.1166666"
         height="15.875"
         x="-147.45889"
         y="186.54485"
         ry="0"
         transform="rotate(-45)" />
      <rect
         transform="rotate(45)"
         ry="0"
         y="138.46306"
         x="193.42401"
         height="15.875"
         width="2.1166666"
         id="rect1431"
         style="opacity:1;fill:#000000;fill-opacity:1;stroke:none;stroke-width:3.78641248;stroke-linecap:square;stroke-linejoin:miter;stroke-miterlimit:2.5;stroke-dasharray:none;stroke-opacity:0.95067264;paint-order:stroke fill markers" />
    </g>
    <g
       id="g1439"
       transform="matrix(1.2478355,0,0,1.2478354,-8.4261471,-15.817568)">
      <rect
         transform="rotate(-45)"
         ry="0"
         y="186.54485"
         x="-147.45889"
         height="15.875"
         width="2.1166666"
         id="rect1435"
         style="opacity:1;fill:#000000;fill-opacity:1;stroke:none;stroke-width:3.78641248;stroke-linecap:square;stroke-linejoin:miter;stroke-miterlimit:2.5;stroke-dasharray:none;stroke-opacity:0.95067264;paint-order:stroke fill markers" />
      <rect
         style="opacity:1;fill:#000000;fill-opacity:1;stroke:none;stroke-width:3.78641248;stroke-linecap:square;stroke-linejoin:miter;stroke-miterlimit:2.5;stroke-dasharray:none;stroke-opacity:0.95067264;paint-order:stroke fill markers"
         id="rect1437"
         width="2.1166666"
         height="15.875"
         x="193.42401"
         y="138.46306"
         ry="0"
         transform="rotate(45)" />
    </g>
  </g>
</svg>
